Coordinates
version=1
nRows=20
nColumns=34
inDegrees=yes

Units are S.I. units (second, meters, Newtons, ...)
If the header above contains a line with 'inDegrees', this indicates whether rotational values are in degrees (yes) or radians (no).

endheader
time	pelvis_tilt	pelvis_list	pelvis_rotation	pelvis_tx	pelvis_ty	pelvis_tz	hip_flexion_r	hip_adduction_r	hip_rotation_r	knee_angle_r	ankle_angle_r	subtalar_angle_r	mtp_angle_r	hip_flexion_l	hip_adduction_l	hip_rotation_l	knee_angle_l	ankle_angle_l	subtalar_angle_l	mtp_angle_l	lumbar_extension	lumbar_bending	lumbar_rotation	arm_flex_r	arm_add_r	arm_rot_r	elbow_flex_r	pro_sup_r	arm_flex_l	arm_add_l	arm_rot_l	elbow_flex_l	pro_sup_l
      0.00000000	      4.98921538	     -6.95765052	    -27.76370882	      2.63514515	      0.95570807	      0.54635542	     34.61321972	      7.66828132	     -6.37299214	     32.21118227	     17.42710899	     12.29621739	      0.00000000	     23.51493807	     12.06974684	     -1.86614541	     10.60026553	    -12.12707021	    -13.38064305	      0.00000000	    -18.15905118	      8.96763370	     -2.69407672	     14.33122181	     15.30965340	     39.16391734	     21.03496012	     97.06395610	     53.41134633	      2.56791338	     19.74733316	     47.36526601	    114.23069772
      0.01666670	      4.97415317	     -6.94396758	    -27.73588432	      2.63510818	      0.95574315	      0.54644262	     34.62741616	      7.63231867	     -6.38286590	     32.19242432	     17.41818993	     12.27762027	      0.00000000	     23.53788789	     12.07110722	     -1.86640037	     10.58625075	    -12.12794378	    -13.39629677	      0.00000000	    -18.19016020	      8.96761763	     -2.64502495	     14.36228141	     15.30884478	     39.16318611	     21.04370454	     97.06704217	     53.38267199	      2.54501512	     19.73849121	     47.35598695	    114.22980765
      0.03333330	      4.95441292	     -6.79455725	    -27.76539093	      2.63432895	      0.95540333	      0.54641893	     34.68336658	      7.46420365	     -6.86255273	     32.09971778	     16.73335329	     11.55128816	      0.00000000	     23.67819490	     12.18735327	     -1.90243679	     10.55394499	    -12.51279164	    -13.77242883	      0.00000000	    -18.29380144	      8.76141700	     -2.17050671	     14.67082938	     15.14964977	     39.22678168	     20.89657533	     97.21957937	     53.27839037	      2.70546654	     19.41780258	     47.86759393	    114.21858224
      0.05000000	      4.83407323	     -6.91955395	    -27.58085541	      2.63352212	      0.95524038	      0.54659717	     34.76419925	      7.63637048	     -6.67651062	     32.07506512	     16.12394279	     11.06137136	      0.00000000	     23.77905544	     12.07264163	     -1.46060014	     10.57871122	    -12.82996615	    -14.30545950	      0.00000000	    -18.39571495	      8.88446098	     -2.22486746	     14.87005091	     15.08044698	     39.16320980	     20.65890287	     97.50987838	     52.86438846	      2.45905160	     18.56044409	     49.08090346	    114.19853772
      0.06666670	      4.85383590	     -7.02485338	    -27.34746138	      2.63262605	      0.95499009	      0.54664466	     34.85412676	      7.68623546	     -6.40812590	     32.32835120	     15.95231768	     11.18157918	      0.00000000	     23.88353004	     12.03530535	     -1.04819970	     10.85322976	    -12.96170179	    -14.52233873	      0.00000000	    -18.58750013	      8.84071010	     -2.41424680	     15.13863271	     15.00722479	     38.92377696	     20.60481492	     97.68711342	     52.68425138	      2.11227858	     17.87554954	     50.13121732	    114.21347685
      0.08333330	      4.95579321	     -7.06063581	    -27.05033744	      2.63250724	      0.95489733	      0.54693811	     34.67054047	      7.65876079	     -6.11060918	     32.43653675	     16.26717649	     11.28421553	      0.00000000	     23.92667841	     12.12055459	     -0.81743258	     11.19637688	    -12.95591447	    -14.57009302	      0.00000000	    -18.63269864	      8.66628450	     -2.91785799	     15.25905321	     15.01383343	     38.43720676	     20.67427290	     97.78796966	     52.04868150	      1.66041645	     16.86528581	     51.54787503	    114.21039558
      0.10000000	      5.26484078	     -7.22305763	    -26.78213274	      2.63367060	      0.95568247	      0.54795965	     34.21366955	      7.64527923	     -6.05602201	     32.82261915	     16.58857782	     11.27867785	      0.00000000	     23.64776111	     12.15661603	     -0.67445389	     11.65635207	    -12.60917268	    -14.47302022	      0.00000000	    -18.64034656	      8.50333730	     -3.37318264	     15.07325831	     15.05600163	     37.83882244	     20.75593393	     97.87208682	     50.89847224	      1.33929078	     15.87932387	     53.29793599	    114.24128716
      0.11666670	      5.72521777	     -7.53293285	    -26.35067904	      2.63549490	      0.95716211	      0.54868572	     33.65241586	      7.56220037	     -6.40228989	     33.49732191	     16.63261593	     11.03004555	      0.00000000	     23.11008702	     12.16295840	     -0.57583373	     12.14985231	    -12.19874071	    -13.96479762	      0.00000000	    -18.79235847	      8.61227011	     -3.76781712	     14.81570972	     15.03605048	     36.77437327	     20.46489539	     97.99615959	     49.57611193	      1.17298552	     15.07637188	     55.27809027	    114.39644465
      0.13333330	      6.25550622	     -7.67666122	    -25.95556486	      2.63663368	      0.95831363	      0.54980450	     33.11491266	      7.44045423	     -6.71040467	     34.08399812	     16.39994305	     10.36434008	      0.00000000	     22.71222711	     12.31144651	     -0.47033837	     12.79122983	    -11.80246702	    -13.90718331	      0.00000000	    -19.10687314	      8.48916474	     -4.14174171	     14.59236710	     15.06714479	     36.06458505	     20.35955056	     98.02592927	     48.53701743	      0.68548662	     14.92532203	     57.14743876	    114.58206401
      0.15000000	      6.64761250	     -7.86015938	    -25.52831240	      2.63784853	      0.95935456	      0.55063807	     32.66927099	      7.36210961	     -7.27385206	     34.65039594	     16.11152043	      9.37726957	      0.00000000	     22.27853329	     12.39699218	     -0.16375632	     13.16041335	    -11.43738578	    -13.72868656	      0.00000000	    -19.45835557	      8.57709678	     -4.43017406	     14.33319236	     15.03955101	     35.13271716	     20.12404398	     97.98364372	     47.34345401	      0.13714769	     14.83895271	     59.51586564	    114.86247762
      0.16666670	      6.79737015	     -8.43879979	    -24.69671069	      2.63933914	      0.96037938	      0.55039645	     32.33993467	      7.43718240	     -8.53736339	     35.29536674	     15.40456864	      8.14179048	      0.00000000	     21.90399377	     12.17996820	      0.59335919	     13.64280391	    -10.95671300	    -13.41441728	      0.00000000	    -19.78020534	      9.38697790	     -4.70675678	     14.00851749	     15.01272883	     32.72842472	     19.73867570	     97.94643391	     46.23681039	     -0.07513343	     14.74728719	     61.95641001	    115.78254683
      0.18333330	      6.97831920	     -8.54256843	    -24.21017151	      2.63974521	      0.96071306	      0.55057176	     32.30803312	      7.32556485	     -8.96765593	     35.99601731	     14.28150577	      7.80393309	      0.00000000	     21.73021823	     12.26563032	      0.86525482	     13.89122689	    -10.87420828	    -13.33125055	      0.00000000	    -20.10257886	      9.52547856	     -4.72215177	     13.99446754	     14.91945170	     32.03259117	     19.61544837	     97.92879777	     45.39286105	     -0.58192050	     15.62688970	     64.46225609	    116.16700539
      0.20000000	      7.18886291	     -8.85160018	    -23.38921639	      2.64154565	      0.96120030	      0.55039267	     31.93932749	      7.34542116	     -9.05972656	     36.39445355	     13.58197584	      7.41429051	      0.00000000	     21.42860710	     12.34531036	      1.60559962	     14.35754422	    -10.55702831	    -13.29807655	      0.00000000	    -20.28278911	      9.96098503	     -5.15864768	     13.76030483	     14.90762673	     30.69607767	     19.19080500	     97.83455174	     44.12302406	     -0.86972327	     15.43811796	     67.37955150	    116.65579009
      0.21666670	      7.56572804	     -9.24139981	    -22.72656349	      2.64388383	      0.96205699	      0.55018216	     31.44942144	      7.19634859	     -9.52149291	     37.04105525	     12.80317373	      7.32889332	      0.00000000	     20.98783563	     12.40117617	      2.28605925	     14.98578751	    -10.06659814	    -13.61760109	      0.00000000	    -20.47572981	     10.43681879	     -5.45983811	     13.49849958	     14.78481651	     28.88632355	     18.94680973	     97.86840930	     42.81669066	     -1.04776261	     15.03476750	     69.90109767	    117.46447056
      0.23333330	      8.00151444	     -9.38576521	    -22.28653875	      2.64518968	      0.96259773	      0.55088464	     31.12165906	      7.08267102	     -9.34434385	     37.68902177	     11.95229638	      7.27934256	      0.00000000	     20.69361528	     12.55102120	      2.51993694	     15.62984284	     -9.70127744	    -13.90569545	      0.00000000	    -20.65577263	     10.47139186	     -5.55341100	     13.28099739	     14.65989918	     28.39761077	     19.04808410	     97.90326830	     41.88978069	     -1.63592267	     15.40933647	     72.03399038	    117.75345861
      0.25000000	      8.32743641	     -9.66713854	    -21.68237211	      2.64601194	      0.96307459	      0.55087263	     30.98399396	      7.13754713	     -9.31768218	     38.40054793	     10.47574055	      6.25190974	      0.00000000	     20.37813781	     12.59391877	      3.07544824	     16.09716396	     -9.54353845	    -13.92340078	      0.00000000	    -20.91985729	     10.80074280	     -5.80851132	     13.11759673	     14.60065176	     27.49375292	     19.05678567	     97.97428296	     40.93794430	     -2.08797120	     15.33716712	     74.49972002	    118.18937076
      0.26666670	      8.36692488	     -9.85655288	    -21.59151223	      2.64492818	      0.96323864	      0.55149076	     31.05306527	      7.28444608	     -9.75673727	     38.48821760	      7.74152076	      5.40311679	      0.00000000	     20.45609027	     12.39556170	      3.14919373	     16.39189804	     -9.60277016	    -14.09510244	      0.00000000	    -21.16451375	     10.88115599	     -5.67540880	     13.17435733	     14.59664678	     26.96575112	     19.36392227	     98.05506701	     40.28628174	     -2.91907492	     15.82390107	     76.60832551	    118.54341798
      0.28333330	      8.19042853	    -10.36726192	    -21.47032866	      2.64402536	      0.96366128	      0.55189831	     30.89526711	      7.91531253	    -10.09126374	     37.89700669	      5.30803672	      3.92251940	      0.00000000	     20.65099486	     11.84569747	      3.52404966	     16.86425374	     -9.39370098	    -14.27231897	      0.00000000	    -21.35196248	     11.35541690	     -5.40561694	     13.17525155	     14.59966111	     26.27134148	     19.53118892	     98.25262688	     39.37661366	     -3.40411578	     15.99666460	     78.96251781	    119.07635608
      0.30000000	      7.87047644	    -11.09054065	    -21.27508309	      2.64301830	      0.96405018	      0.55158597	     30.80894864	      8.59733125	    -11.00058940	     37.22579434	      2.21882240	      2.17731433	      0.00000000	     20.95434878	     11.11822942	      4.22133141	     17.41827231	     -9.09458192	    -14.32148628	      0.00000000	    -21.50976179	     12.23766847	     -4.91047362	     13.31406019	     14.46281855	     25.67628117	     19.66200697	     98.77490323	     38.70757088	     -3.70645929	     16.50914045	     80.65177297	    119.74817918
      0.31666670	      7.55572442	    -11.41424271	    -21.12635049	      2.64238439	      0.96378894	      0.55115130	     30.70953437	      8.84712744	    -11.68823197	     36.49618261	      0.82017117	      1.99595004	      0.00000000	     21.52291606	     10.71882064	      4.25771303	     18.08297572	     -8.94563497	    -14.06348175	      0.00000000	    -21.50988575	     12.71639913	     -4.39529887	     13.53799780	     14.30818389	     25.23274035	     19.85839834	     99.19282610	     38.03607821	     -3.95686300	     16.95977756	     82.48230397	    119.74817918
